<svg xmlns="http://www.w3.org/2000/svg" viewBox="0 0 1600 620" preserveAspectRatio="xMidYMid slice"><defs><linearGradient id="sky" x1="0" y1="0" x2="0" y2="1"><stop stop-color="#091a2e"/><stop offset=".55" stop-color="#17304a"/><stop offset="1" stop-color="#07101c"/></linearGradient><linearGradient id="sun" x1="0" y1="0" x2="1" y2="0"><stop stop-color="#ffb347"/><stop offset="1" stop-color="#ff5d35"/></linearGradient><radialGradient id="glow"><stop stop-color="#ffcc72" stop-opacity=".9"/><stop offset="1" stop-color="#ff7b35" stop-opacity="0"/></radialGradient></defs><rect width="1600" height="620" fill="url(#sky)"/><circle cx="1110" cy="290" r="170" fill="url(#glow)"/><circle cx="1110" cy="290" r="58" fill="url(#sun)"/><path d="M0 390L150 300l120 90 170-155 180 155 180-115 180 115 180-80 160 80 160-110v240H0z" fill="#07111c"/><path d="M0 440l220-100 160 80 170-120 170 110 190-90 170 100 180-130 340 160v170H0z" fill="#0b1724"/><g stroke="#6f8497" stroke-width="9" fill="none" opacity=".85"><path d="M1230 450V135M1370 450V135M1160 450l140-315 140 315M1190 250h220M1210 205h180M1230 160h140"/><path d="M1230 160l140 45M1230 205l140 45M1230 250l140 45"/></g><g fill="#ffb24d"><circle cx="1300" cy="150" r="7"/><circle cx="1300" cy="215" r="7"/><circle cx="1300" cy="280" r="7"/></g><path d="M1390 145q130-65 180-15v120q-75-45-180 15z" fill="#101b2a" stroke="#26384c" stroke-width="3"/><path d="M1420 160h75v95h-75z" fill="#102236"/><path d="M1420 235h75v20h-75z" fill="#f4c542"/><path d="M1420 160h75v28h-75z" fill="#fff"/><path d="M1435 175l20-10 20 10-20 10z" fill="#1c2734"/><g opacity=".9"><path d="M0 520h1600" stroke="#25394b" stroke-width="10"/><path d="M760 520l100-90 100 90" stroke="#4b5f70" stroke-width="8" fill="none"/></g><g transform="translate(95 385)"><path d="M0 90l90-65 140 25 35 70H0z" fill="#1a2733"/><path d="M60 25h100l30 25H35z" fill="#b9c1c8"/><path d="M72 10q45-35 90 0v20H72z" fill="#d2d5d7"/><circle cx="117" cy="30" r="9" fill="#ffce72"/><rect x="10" y="95" width="70" height="22" rx="6" fill="#25384a"/><circle cx="55" cy="117" r="18" fill="#060c12"/><circle cx="205" cy="117" r="18" fill="#060c12"/></g></svg>